<?xml version="1.0" encoding="UTF-8"?>
<svg width="1080px" height="428px" viewBox="0 0 1080 428" version="1.1" xmlns="http://www.w3.org/2000/svg" xmlns:xlink="http://www.w3.org/1999/xlink">
    <!-- Generator: Sketch 41.2 (35397) - http://www.bohemiancoding.com/sketch -->
    <title>Group 3</title>
    <desc>Created with Sketch.</desc>
    <defs></defs>
    <g id="Projects" stroke="none" stroke-width="1" fill="none" fill-rule="evenodd">
        <g id="Desktop-HD-Copy-2" transform="translate(-88.000000, -1324.000000)">
            <g id="Group-3" transform="translate(79.000000, 1325.000000)">
                <path d="M52.3671875,382.484375 C160.046875,382.890625 184.140625,288.828125 301.78125,289.304688 C419.421875,289.78125 440.40625,96.6328125 557.09375,94.765625 C673.78125,92.8984375 693.859375,111.695312 828.078125,111.789062 C962.296875,111.882813 971.0625,2.3203125 1084.07813,0.8359375" id="Path-2" stroke="#23CDAC" stroke-width="3"></path>
                <text id="Revenue" transform="translate(17.500000, 365.500000) rotate(-90.000000) translate(-17.500000, -365.500000) " font-family="GloriaHallelujah, Gloria Hallelujah" font-size="18" font-weight="normal" fill="#333333">
                    <tspan x="-18" y="373">Revenue</tspan>
                </text>
                <text id="Time" transform="translate(75.000000, 418.500000) rotate(-360.000000) translate(-75.000000, -418.500000) " font-family="GloriaHallelujah, Gloria Hallelujah" font-size="18" font-weight="normal" fill="#333333">
                    <tspan x="53" y="426">Time</tspan>
                </text>
                <path d="M111.5,419.5 L1087.99219,419.5" id="Line" stroke="#979797" stroke-linecap="square"></path>
                <path id="Line-decoration-1" d="M1087.99219,419.5 L1077.19219,416.5 L1077.19219,422.5 L1087.99219,419.5 Z" stroke="#979797" stroke-linecap="square"></path>
                <path d="M19.5,315.5 L19.5,14.5" id="Line" stroke="#979797" stroke-linecap="square"></path>
                <path id="Line-decoration-1" d="M19.5,14.5 L16.5,25.3 L22.5,25.3 L19.5,14.5 Z" stroke="#979797" stroke-linecap="square"></path>
            </g>
        </g>
    </g>
</svg>