<?xml version="1.0" encoding="UTF-8"?>
<svg width="115px" height="184px" viewBox="0 0 115 184" version="1.1" xmlns="http://www.w3.org/2000/svg" xmlns:xlink="http://www.w3.org/1999/xlink">
    <!-- Generator: Sketch 42 (36781) - http://www.bohemiancoding.com/sketch -->
    <title>Group 3</title>
    <desc>Created with Sketch.</desc>
    <defs>
        <path d="M33,38.2072072 L20.836482,38.2072072 C15.3618908,38.2072072 10.9238579,33.7695766 10.9238579,28.2927928 C10.9238579,22.8388837 15.3304813,18.4135299 20.7715736,18.3785868 C20.7715736,18.1541388 20.7715736,17.9966854 20.7715736,17.9966854 C20.7715736,11.1422242 26.1189725,4.06505596 32.8242792,2.61206901 C32.8242792,2.61206901 35.2460938,0.585585586 54.5,0.585585586 C73.7539062,0.585585586 76.1950999,2.61567255 76.1950999,2.61567255 C82.8409226,4.25591023 88.7482929,11.1264491 89.3882547,17.9473168 L89.4362933,18.4593241 C94.3097565,19.0839484 98.0761421,23.2474262 98.0761421,28.2927928 C98.0761421,33.7683727 93.6344302,38.2072072 88.163518,38.2072072 L48,38.2072072 L48,48.4965138 C48,52.6405748 44.6337072,56 40.5,56 C36.3578644,56 33,52.6503575 33,48.4965138 L33,38.2072072 Z" id="path-1"></path>
        <mask id="mask-2" maskContentUnits="userSpaceOnUse" maskUnits="objectBoundingBox" x="0" y="0" width="87.1522843" height="55.4144144" fill="white">
            <use xlink:href="#path-1"></use>
        </mask>
    </defs>
    <g id="Page-1" stroke="none" stroke-width="1" fill="none" fill-rule="evenodd">
        <g id="Group-3" transform="translate(2.000000, 0.000000)">
            <path d="M41,129 C41,129 47.8769531,130.60498 55,130.60498 C62.1230469,130.60498 69,129 69,129 C69,129 59,139.758789 59,158 C59,176.241211 69.4267578,178 69.4267578,178 L79.6103516,178 C79.6103516,178 81.7890625,178.019775 81.7890625,180 C81.7890625,181.980225 79.9863281,182 79.9863281,182 L31.2271841,182 C31.2271841,182 29,182.044434 29,180 C29,177.955566 31.5175781,178 31.5175781,178 L41.5074444,178 C41.5074444,178 51,176.356689 51,158 C51,139.643311 41,129 41,129 Z" id="Path-5" stroke="#D5D5D5" stroke-width="3" fill="#F7F7F7"></path>
            <path d="M11.8951888,38.1083984 C11.8951888,46.5361328 2.61393879,53.8730469 0.285813789,71.90625 C-2.04231121,89.9394531 10.609138,108.057028 10.8863997,108.567383 C11.1636614,109.077738 26.5953841,130.729492 56.3249844,130.729492 C82.0905013,130.729492 93.1217513,116.583984 98.9069075,108.360352 C104.692064,100.136719 112.529954,83.78125 110.495775,71.9025421 C108.461595,60.0238342 98.4498763,46.4199219 98.4498763,38.1025391 C98.4498763,29.7851563 68.3756575,29 56.649095,29 C44.9225325,29 11.8951888,29.6806641 11.8951888,38.1083984 Z" id="Path-4" stroke="#D5D5D5" stroke-width="3" fill-opacity="0.6" fill="#FFE17E"></path>
            <path d="M17.3925199,42.0339727 C17.3925199,49.4675725 9.28373095,55.9390249 7.24970814,71.8450333 C5.21568533,87.7510418 16.2689305,103.731469 16.5111669,104.181623 C16.7534033,104.631777 30.2357016,123.729492 56.2096872,123.729492 C78.7203552,123.729492 88.358074,111.252587 93.4124159,103.999013 C98.4667578,96.745439 105.314521,82.3192596 103.537311,71.8417628 C101.7601,61.3642661 93.0131195,49.3650698 93.0131195,42.0288045 C93.0131195,34.6925393 66.7380497,34 56.4928543,34 C46.2476589,34 17.3925199,34.600373 17.3925199,42.0339727 Z" id="Path-4-Copy" fill-opacity="0.6" fill="#FFC200"></path>
            <use id="Combined-Shape" stroke="#FFEDB2" mask="url(#mask-2)" stroke-width="6" fill="#FFFFFF" xlink:href="#path-1"></use>
        </g>
    </g>
</svg>