<?xml version="1.0" encoding="UTF-8"?>
<svg width="197px" height="181px" viewBox="0 0 197 181" version="1.1" xmlns="http://www.w3.org/2000/svg" xmlns:xlink="http://www.w3.org/1999/xlink">
    <!-- Generator: Sketch 42 (36781) - http://www.bohemiancoding.com/sketch -->
    <title>Group 2</title>
    <desc>Created with Sketch.</desc>
    <defs>
        <path d="M126.337272,20 L131.495947,20 C140.058599,20 147,26.9377042 147,35.5 C147,37.0650056 146.768144,38.5758387 146.33686,40 L151.500874,40 C160.060805,40 167,46.9377042 167,55.5 C167,57.0650056 166.768217,58.5758387 166.337068,60 L171.505567,60 C180.062906,60 187,66.9377042 187,75.5 C187,77.3226153 186.685462,79.0717561 186.107746,80.6960875 C192.418044,82.6575527 197,88.5424247 197,95.5 C197,104.060414 190.060963,111 181.500643,111 L15.4993566,111 C6.93929832,111 0,104.062296 0,95.5 C0,88.5440445 4.58166494,82.6582788 10.891911,80.6963251 C10.3144038,79.0720228 10,77.3228264 10,75.5 C10,66.9395864 16.9386098,60 25.4944332,60 L30.6630749,60 C30.2318522,58.5759135 30,57.0650972 30,55.5 C30,46.9395864 36.9348975,40 45.4991261,40 L50.6632857,40 C50.2319259,38.5759135 50,37.0650972 50,35.5 C50,26.9395864 56.9370733,20 65.5040534,20 L70.6631213,20 C70.2318684,18.5759135 70,17.0650972 70,15.5 C70,6.93958638 76.9323333,0 85.5002094,0 L111.499791,0 C120.06032,0 127,6.93770418 127,15.5 C127,17.0650056 126.768302,18.5758387 126.337272,20 Z" id="path-1"></path>
        <mask id="mask-2" maskContentUnits="userSpaceOnUse" maskUnits="objectBoundingBox" x="0" y="0" width="197" height="111" fill="white">
            <use xlink:href="#path-1"></use>
        </mask>
    </defs>
    <g id="Page-1" stroke="none" stroke-width="1" fill="none" fill-rule="evenodd">
        <g id="Group-2">
            <path d="M24,110 L42.625,174.485981 C42.625,174.485981 61.9884521,179 98.5,179 C135.011548,179 154.375,174.485981 154.375,174.485981 L173,110 L24,110 Z" id="Path-3-Copy" stroke="#BFEBFE" stroke-width="3" fill="#ECF9FF"></path>
            <path d="M33,117 L49.375,168.401869 C49.375,168.401869 66.3992432,172 98.5,172 C130.600757,172 147.625,168.401869 147.625,168.401869 L164,117 L33,117 Z" id="Path-3-Copy-2" fill="#D9F2FD"></path>
            <use id="Combined-Shape" stroke="#FFAEB8" mask="url(#mask-2)" stroke-width="6" fill="#FDBCC4" xlink:href="#path-1"></use>
        </g>
    </g>
</svg>