<?xml version="1.0" encoding="UTF-8"?>
<svg width="389px" height="237px" viewBox="0 0 389 237" version="1.1" xmlns="http://www.w3.org/2000/svg" xmlns:xlink="http://www.w3.org/1999/xlink">
    <!-- Generator: Sketch 42 (36781) - http://www.bohemiancoding.com/sketch -->
    <title>Group 7</title>
    <desc>Created with Sketch.</desc>
    <defs>
        <rect id="path-1" x="2" y="132" width="71" height="102" rx="13"></rect>
        <mask id="mask-2" maskContentUnits="userSpaceOnUse" maskUnits="objectBoundingBox" x="0" y="0" width="71" height="102" fill="white">
            <use xlink:href="#path-1"></use>
        </mask>
        <rect id="path-3" x="316" y="132" width="71" height="102" rx="13"></rect>
        <mask id="mask-4" maskContentUnits="userSpaceOnUse" maskUnits="objectBoundingBox" x="0" y="0" width="71" height="102" fill="white">
            <use xlink:href="#path-3"></use>
        </mask>
    </defs>
    <g id="Page-1" stroke="none" stroke-width="1" fill="none" fill-rule="evenodd">
        <g id="Group-7" transform="translate(0.000000, 2.000000)">
            <path d="M48,63 C48,63 81.4211648,12.5825036 91.4090909,5.98556389 C101.397017,-0.611375811 285.640536,-2.15997338 298.590909,5.98556389 C311.541282,14.1311012 342,63 342,63 C342,63 244.282552,60.0097656 195,60.0097656 C145.717448,60.0097656 48,63 48,63 Z" id="Path-8" stroke="#CD5B18" stroke-width="3" fill="#333333"></path>
            <use id="Rectangle-9" stroke="#979797" mask="url(#mask-2)" stroke-width="2" fill="#333333" transform="translate(37.500000, 183.000000) rotate(2.000000) translate(-37.500000, -183.000000) " xlink:href="#path-1"></use>
            <use id="Rectangle-9-Copy" stroke="#979797" mask="url(#mask-4)" stroke-width="2" fill="#333333" transform="translate(351.500000, 183.000000) scale(-1, 1) rotate(2.000000) translate(-351.500000, -183.000000) " xlink:href="#path-3"></use>
            <path d="M47.8164063,63 C47.8164063,63 34.9868379,68.6091404 24.6601562,81.7597656 C16.4630682,92.1984367 10.7173326,109.403756 8,118 C1.859375,137.425781 8,212.355469 8,212.355469 C8,212.355469 130.54134,220.191406 195.213215,220.191406 C259.88509,220.191406 382,212.355469 382,212.355469 C382,212.355469 389.100095,136.806115 382,118 C378.596638,108.98547 374.764553,92.8632678 365.960938,81.7597656 C356.398448,69.699139 341.960938,63 341.960938,63 C341.960938,63 223.308919,60.1132812 195.213215,60.1132812 C167.117512,60.1132812 47.8164063,63 47.8164063,63 Z" id="Path-9" stroke="#CD5B17" stroke-width="3" fill="#EC6E24"></path>
            <path d="M35.2052186,98 L85.620746,121.598633 L92.7960389,130.225586 L83.7310975,130.837891 C83.7310975,130.837891 58.3908683,127.422852 56.070453,127.422852 C52.6095155,127.422852 45.9874452,131.841797 39.3604921,131.841797 C32.7335389,131.841797 26.9078553,124.558594 25.8717225,121.598633 C24.8355897,118.638672 24.0689882,110.446777 27.5597108,105.514648 C31.0504335,100.58252 35.2052186,98 35.2052186,98 Z" id="Path-10" fill="#E7E7E7"></path>
            <path d="M305.205219,98 L355.620746,121.598633 L362.796039,130.225586 L353.731098,130.837891 C353.731098,130.837891 328.390868,127.422852 326.070453,127.422852 C322.609516,127.422852 315.987445,131.841797 309.360492,131.841797 C302.733539,131.841797 296.907855,124.558594 295.871723,121.598633 C294.83559,118.638672 294.068988,110.446777 297.559711,105.514648 C301.050433,100.58252 305.205219,98 305.205219,98 Z" id="Path-10" fill="#E7E7E7" transform="translate(328.898019, 114.920898) scale(-1, 1) translate(-328.898019, -114.920898) "></path>
            <path d="M112.83252,201.380859 C112.83252,201.380859 177.002441,203.950195 194.506348,203.950195 C212.010254,203.950195 279.482422,201.380859 279.482422,201.380859 C279.482422,201.380859 286.012695,192.71875 286.012695,186.601562 C286.012695,180.484375 276.174805,164.282227 266.751953,160 L122.134766,160 C115.259766,163.164062 103,179.558594 103,186.601562 C103,193.644531 112.83252,201.380859 112.83252,201.380859 Z" id="Path-11" fill="#333333"></path>
            <path d="M60.9560547,68.1152344 C60.9560547,68.1152344 46.1718267,82.15625 50.0188692,85.4316406 C53.8659116,88.7070312 113.705931,119.457031 119.389807,122.210937 C125.073683,124.964844 181.143976,126.4375 197.905085,126.4375 C214.666194,126.4375 259.886515,125.847656 269.813384,124.029297 C279.740253,122.210937 339.528728,87.9472656 343.792807,84.5546875 C348.056886,81.1621094 331.100586,68.1152344 331.100586,68.1152344 C331.100586,68.1152344 246.07674,65.492052 196.930313,65.5380859 C147.783886,65.5841199 60.9560547,68.1152344 60.9560547,68.1152344 Z" id="Path-12" fill-opacity="0.1" fill="#FFFFFF"></path>
            <ellipse id="Oval-13" stroke="#979797" fill="#D8D8D8" cx="195" cy="128.5" rx="12" ry="7.5"></ellipse>
            <path d="M17,152 C17,152 17.9199219,186.742187 23.4980469,189.101562 C29.0761719,191.460938 56.7207031,198.302734 56.7207031,198.302734 C56.7207031,198.302734 32.1289063,159.804688 29.3730469,155.902344 C26.6171875,152 17,152 17,152 Z" id="Path-13" fill="#333333"></path>
            <path d="M334,152 C334,152 334.919922,186.742187 340.498047,189.101562 C346.076172,191.460938 373.720703,198.302734 373.720703,198.302734 C373.720703,198.302734 349.128906,159.804688 346.373047,155.902344 C343.617188,152 334,152 334,152 Z" id="Path-13-Copy" fill="#333333" transform="translate(353.860352, 175.151367) scale(-1, 1) translate(-353.860352, -175.151367) "></path>
        </g>
    </g>
</svg>