<svg id="Layer_1" data-name="Layer 1" xmlns="http://www.w3.org/2000/svg" viewBox="0 0 151.44 35.11"><defs><style>.cls-1{fill:#fe581c;}.cls-2{fill:#23cdac;}.cls-3{fill:#242c3b;}</style></defs><title>Looksharp_logo</title><path class="cls-1" d="M1229.4,264.8a15.29,15.29,0,0,1,9,2.93,15.36,15.36,0,1,0-22.07,20.53A15.35,15.35,0,0,1,1229.4,264.8Z" transform="translate(-1209.97 -260.44)"/><path class="cls-2" d="M1238.41,267.74a15.36,15.36,0,0,1-22.07,20.53A15.36,15.36,0,1,0,1238.41,267.74Z" transform="translate(-1209.97 -260.44)"/><path class="cls-3" d="M1240.72,275.82a15.28,15.28,0,0,0-2.32-8.08,15.35,15.35,0,0,0-22.07,20.53A15.36,15.36,0,0,0,1240.72,275.82Z" transform="translate(-1209.97 -260.44)"/><path class="cls-3" d="M1275.9,278a6.14,6.14,0,0,1-1.87,4.54,6.89,6.89,0,0,1-9.39,0,6.47,6.47,0,0,1,0-9.1,6.86,6.86,0,0,1,9.39,0,6.17,6.17,0,0,1,1.87,4.55m-9.64,0a3.55,3.55,0,0,0,.86,2.48,3,3,0,0,0,4.43,0,3.55,3.55,0,0,0,.87-2.48,3.6,3.6,0,0,0-.87-2.49,3,3,0,0,0-4.43,0,3.6,3.6,0,0,0-.86,2.49" transform="translate(-1209.97 -260.44)"/><path class="cls-3" d="M1289.23,278a6.14,6.14,0,0,1-1.87,4.54,6.89,6.89,0,0,1-9.39,0,6.47,6.47,0,0,1,0-9.1,6.86,6.86,0,0,1,9.39,0,6.17,6.17,0,0,1,1.87,4.55m-9.64,0a3.56,3.56,0,0,0,.86,2.48,3,3,0,0,0,4.43,0,3.56,3.56,0,0,0,.86-2.48,3.6,3.6,0,0,0-.86-2.49,3,3,0,0,0-4.43,0,3.6,3.6,0,0,0-.86,2.49" transform="translate(-1209.97 -260.44)"/><path class="cls-3" d="M1301.3,272.45l0,0,0,0" transform="translate(-1209.97 -260.44)"/><path class="cls-3" d="M1310.44,278a6.35,6.35,0,0,0-2.73-1.31,8,8,0,0,1-2.1-.69,0.71,0.71,0,0,1-.36-0.63,0.81,0.81,0,0,1,.3-0.66,1.39,1.39,0,0,1,.9-0.26,4.9,4.9,0,0,1,2.77.92l0,0a0.6,0.6,0,0,0,.74-0.1h0l0,0,0.95-1.37,0-.06a0.6,0.6,0,0,0,.08-0.3,0.59,0.59,0,0,0-.24-0.48h0a6.8,6.8,0,0,0-1.85-1,7.57,7.57,0,0,0-2.46-.42,5.15,5.15,0,0,0-3.18,1,3.32,3.32,0,0,0-1.31,2.8,3.27,3.27,0,0,0,1,2.67,7.88,7.88,0,0,0,3.14,1.33,5.67,5.67,0,0,1,1.68.6,0.76,0.76,0,0,1,.35.67,0.79,0.79,0,0,1-.33.67,1.66,1.66,0,0,1-1,.27,5.15,5.15,0,0,1-3.13-1.4l0,0a0.6,0.6,0,0,0-.79.07l0,0-1.12,1.37h0a0.59,0.59,0,0,0-.14.38,0.62,0.62,0,0,0,.21.45,7.49,7.49,0,0,0,5,1.91,5,5,0,0,0,3.31-1.05,3.45,3.45,0,0,0,1.28-2.78A3.32,3.32,0,0,0,1310.44,278Z" transform="translate(-1209.97 -260.44)"/><path class="cls-3" d="M1322.65,273a4.46,4.46,0,0,0-3.34-1.4,4.91,4.91,0,0,0-3.57,1.62V267.5a0.5,0.5,0,0,0-.5-0.5h-2.51a0.56,0.56,0,0,0-.5.56v16.37a0.5,0.5,0,0,0,.5.5h2.51a0.5,0.5,0,0,0,.5-0.5v-6.29a3,3,0,0,1,.78-2.24,2.56,2.56,0,0,1,1.84-.76q2.13,0,2.13,2.9v6.38h0a0.5,0.5,0,0,0,.5.5h2.51a0.5,0.5,0,0,0,.5-0.5v-7.16a5.16,5.16,0,0,0-1.36-3.75" transform="translate(-1209.97 -260.44)"/><path class="cls-3" d="M1345,274.44h0Z" transform="translate(-1209.97 -260.44)"/><path class="cls-3" d="M1346.26,272.18a0,0,0,0,1,0,0h0v0Z" transform="translate(-1209.97 -260.44)"/><path class="cls-3" d="M1346.26,272.1v0.06h0v0s0,0,0,0" transform="translate(-1209.97 -260.44)"/><path class="cls-3" d="M1345,274.4s0,0,0,0v0.07s0,0,0,0" transform="translate(-1209.97 -260.44)"/><path class="cls-3" d="M1344.46,272.15a0.5,0.5,0,0,0-.49-0.46h0l-0.15,0a4.82,4.82,0,0,0-1.43.5,5.88,5.88,0,0,0-1.7,1.31v-1.36a0.5,0.5,0,0,0-.5-0.5h-2.51a0.5,0.5,0,0,0-.5.5v11.74a0.5,0.5,0,0,0,.5.5h2.51a0.5,0.5,0,0,0,.5-0.5V279a5.06,5.06,0,0,1,.77-2.94,2.66,2.66,0,0,1,2.34-1.11H1344a0.5,0.5,0,0,0,.47-0.46h0Z" transform="translate(-1209.97 -260.44)"/><path class="cls-3" d="M1336.22,276.41v7.48a0.5,0.5,0,0,1-.5.5h-2.28a0.5,0.5,0,0,1-.5-0.5v-1a4.11,4.11,0,0,1-3.34,1.7,5,5,0,0,1-3.34-1.15,3.83,3.83,0,0,1-1.35-3.07,3.24,3.24,0,0,1,1.39-2.87,6.68,6.68,0,0,1,3.81-1h2.6v-0.07a1.82,1.82,0,0,0-2.12-2,5.73,5.73,0,0,0-1.92.36,6.76,6.76,0,0,0-1.29.61l0,0,0,0a0.49,0.49,0,0,1-.62-0.15v0h0l-1-1.42h0a0.5,0.5,0,0,1-.09-0.29,0.49,0.49,0,0,1,.14-0.35l0.12-.09,0,0a9.35,9.35,0,0,1,5.12-1.45,5.82,5.82,0,0,1,3.72,1.14,4.31,4.31,0,0,1,1.44,3.6m-3.51,2.61h-2.19q-2.09,0-2.09,1.3a1.2,1.2,0,0,0,.5,1,2.42,2.42,0,0,0,1.43.36,2.56,2.56,0,0,0,1.64-.57,1.86,1.86,0,0,0,.71-1.52V279Z" transform="translate(-1209.97 -260.44)"/><path class="cls-3" d="M1358,278.12a6.63,6.63,0,0,1-1.72,4.66,5.31,5.31,0,0,1-4,1.87,4.43,4.43,0,0,1-3.71-1.85v5.7h0a0.5,0.5,0,0,1-.5.5h-2.51a0.5,0.5,0,0,1-.5-0.5V272.17a0.5,0.5,0,0,1,.5-0.5h2.51a0.5,0.5,0,0,1,.5.5v1.1a5.2,5.2,0,0,1,7.74.22,6.51,6.51,0,0,1,1.72,4.62m-3.54.07a3.76,3.76,0,0,0-.89-2.55,2.72,2.72,0,0,0-2.13-1,2.63,2.63,0,0,0-2.09,1,3.82,3.82,0,0,0-.86,2.55,3.64,3.64,0,0,0,.86,2.51,2.66,2.66,0,0,0,2.07,1,2.84,2.84,0,0,0,2.13-1,3.5,3.5,0,0,0,.91-2.49" transform="translate(-1209.97 -260.44)"/><path class="cls-3" d="M1301.59,283.64h0l-4.47-6.74,4-4.28a0.5,0.5,0,0,0-.38-0.82h-3.05a0.5,0.5,0,0,0-.36.16h0l-3.76,4v-8.45a0.5,0.5,0,0,0-.5-0.5h-2.51a0.5,0.5,0,0,0-.5.5v16.4a0.5,0.5,0,0,0,.5.5h2.51a0.5,0.5,0,0,0,.5-0.5v-3.13l1.15-1.19,3,4.58,0,0.05a0.5,0.5,0,0,0,.4.2h3a0.5,0.5,0,0,0,.5-0.5,0.49,0.49,0,0,0-.08-0.27" transform="translate(-1209.97 -260.44)"/><path class="cls-3" d="M1262.45,281.15h-6V268a0.5,0.5,0,0,0-.5-0.5h-2.65a0.5,0.5,0,0,0-.5.5v16.44h9.64a0.5,0.5,0,0,0,.5-0.5v-2.25A0.5,0.5,0,0,0,1262.45,281.15Z" transform="translate(-1209.97 -260.44)"/><path class="cls-3" d="M1359.78,275a1.73,1.73,0,0,1-.67-0.13,1.52,1.52,0,0,1-.85-0.86,1.85,1.85,0,0,1,0-1.31,1.51,1.51,0,0,1,.85-0.87,1.72,1.72,0,0,1,.67-0.13,1.76,1.76,0,0,1,.67.12,1.51,1.51,0,0,1,.52.34,1.58,1.58,0,0,1,.33.52,1.86,1.86,0,0,1,0,1.31,1.52,1.52,0,0,1-.85.86A1.73,1.73,0,0,1,1359.78,275Zm0-.29a1.37,1.37,0,0,0,.55-0.11,1.21,1.21,0,0,0,.67-0.72,1.61,1.61,0,0,0,0-1.07,1.21,1.21,0,0,0-.67-0.72,1.49,1.49,0,0,0-1.1,0,1.21,1.21,0,0,0-.41.29,1.26,1.26,0,0,0-.26.43,1.61,1.61,0,0,0,0,1.07,1.26,1.26,0,0,0,.26.43,1.2,1.2,0,0,0,.41.29A1.37,1.37,0,0,0,1359.78,274.67Zm-0.54-2.24,0.22,0h0.24a1.27,1.27,0,0,1,.29,0,0.7,0.7,0,0,1,.23.09,0.45,0.45,0,0,1,.15.16,0.56,0.56,0,0,1,0,.56,0.64,0.64,0,0,1-.21.18l0.46,0.7h-0.38l-0.5-.79,0.09,0a0.85,0.85,0,0,0,.2-0.13,0.27,0.27,0,0,0,.1-0.21,0.24,0.24,0,0,0-.09-0.2,0.39,0.39,0,0,0-.24-0.07h-0.16v1.43h-0.34v-1.7Z" transform="translate(-1209.97 -260.44)"/></svg>