<?xml version="1.0" encoding="UTF-8"?>
<svg width="301px" height="222px" viewBox="0 0 301 222" version="1.1" xmlns="http://www.w3.org/2000/svg" xmlns:xlink="http://www.w3.org/1999/xlink">
    <!-- Generator: Sketch 42 (36781) - http://www.bohemiancoding.com/sketch -->
    <title>Group 8</title>
    <desc>Created with Sketch.</desc>
    <defs></defs>
    <g id="Page-1" stroke="none" stroke-width="1" fill="none" fill-rule="evenodd">
        <g id="Group-8" transform="translate(2.000000, 3.000000)">
            <polygon id="Path-15" stroke="#C6E1A8" stroke-width="3" fill="#A7C9F1" points="1.63867188 20.6660156 45.3203125 35.8125 91.2285156 3.60351563 140.279297 37.015625 198.138672 7.74609375 245.794922 33.3027344 297.082031 0.44921875 297.308594 181.378906 245.722656 210.955078 197.851562 187.214844 141.082031 216.675781 91.1035156 183.574219 46.6796875 214.509766 0.3671875 200.039062"></polygon>
            <path d="M122.699219,26.4453125 C122.699219,26.4453125 100.964844,46.8300781 97.4511719,61.0429688 C93.9375,75.2558594 116.870226,107.263672 113.380859,116.814453 C109.891492,126.365234 97.4511719,113.673828 88.8925781,100.498047 C88.8925781,100.498047 36.9042969,84.1542969 32.109375,97.859375 C27.3144531,111.564453 5.92578125,145.410156 19.0175781,153.851563 C25.2906344,157.896341 35.7119141,174.210937 45.5654297,167.912109 C55.4189453,161.613281 68.2460938,167.292811 68.2460938,172.666016 C68.2460938,182.982422 55.4189453,206.272461 55.4189453,206.272461 L46.9082031,213.130859 L1.90136719,198.875 L3.16699219,22.46875 L45.5654297,37.6064453 L90.9833984,5.39160156 L122.699219,26.4453125 Z" id="Path-14" fill="#E1F7C8"></path>
            <path d="M141.506348,214.629883 C141.506348,214.629883 142.948242,179.323242 148.614258,174.873047 C154.280273,170.422852 162.347656,153.998047 168.415039,149.774414 C174.482422,145.550781 190.200195,163.938477 196.75293,163.938477 C203.305664,163.938477 223.55957,172.852539 223.55957,179.005859 C223.55957,185.15918 228.487793,200.618164 228.487793,200.618164 L197.902344,185.412109 L141.506348,214.629883 Z" id="Path-16" fill="#E1F7C8"></path>
            <path d="M201.356934,11.2250977 C201.356934,11.2250977 196.674805,35.8417969 203.775391,38.6455078 C210.875977,41.4492188 223.630859,42.3759766 225.711914,49.8662109 C227.792969,57.3564453 224.964844,72.7041016 223.311523,77.2285156 C221.658203,81.7529297 237.401367,91.3134766 246.342773,83.0605469 C255.28418,74.8076172 255.813477,68.1025391 258.614258,68.1025391 C261.415039,68.1025391 252.383789,99.6787109 248.308594,102.356445 C244.233398,105.03418 228.363281,114.916016 230.868164,125.96875 C233.373047,137.021484 235.375977,151.422852 240.256836,151.422852 C245.137695,151.422852 269.449219,144.485352 273.799805,139.491211 C278.150391,134.49707 295.530273,159.169922 295.530273,162.96875 C295.530273,166.767578 295.530273,3.12402344 295.530273,3.12402344 L245.783691,35.0471191 L201.356934,11.2250977 Z" id="Path-17" fill="#E1F7C8"></path>
            <path d="M46,39.5 L46,206.691507" id="Line" stroke-opacity="0.1" stroke="#4A90E2" stroke-width="2" stroke-linecap="square"></path>
            <path d="M91,10.5 L91,177.691507" id="Line-Copy" stroke-opacity="0.1" stroke="#4A90E2" stroke-width="2" stroke-linecap="square"></path>
            <path d="M141,43.5 L141,210.691507" id="Line-Copy-2" stroke-opacity="0.1" stroke="#4A90E2" stroke-width="2" stroke-linecap="square"></path>
            <path d="M198,14.5 L198,181.691507" id="Line-Copy-3" stroke-opacity="0.1" stroke="#4A90E2" stroke-width="2" stroke-linecap="square"></path>
            <path d="M246,37.5 L246,204.691507" id="Line-Copy-4" stroke-opacity="0.1" stroke="#4A90E2" stroke-width="2" stroke-linecap="square"></path>
        </g>
    </g>
</svg>