<?xml version="1.0" encoding="UTF-8"?>
<svg width="161px" height="119px" viewBox="0 0 161 119" version="1.1" xmlns="http://www.w3.org/2000/svg" xmlns:xlink="http://www.w3.org/1999/xlink">
    <!-- Generator: Sketch 42 (36781) - http://www.bohemiancoding.com/sketch -->
    <title>Group 10</title>
    <desc>Created with Sketch.</desc>
    <defs></defs>
    <g id="Page-1" stroke="none" stroke-width="1" fill="none" fill-rule="evenodd">
        <g id="Group-10" transform="translate(2.000000, -6.000000)">
            <path d="M1.515625,17.4235374 L0,41.3180686 C0,41.3180686 3.10351562,52.6657249 3.10351562,52.6657249 C3.10351562,52.6657249 2.93164063,54.5954124 3.01757813,57.4782249 C3.10351562,60.3610374 7.87304688,62.6559592 7.87304688,64.6754905 C7.87304688,66.6950217 13.15625,74.0211936 13.15625,74.0211936 C13.15625,74.0211936 11.5390625,90.9596702 13.15625,94.1237327 C14.7734375,97.2877952 17.0693359,95.1872092 21.0107422,95.1872092 C24.9521484,95.1872092 22.2070313,104.140334 26.5234375,106.321975 C30.8398438,108.503615 26.1503906,114.695022 32.4550781,114.695022 C38.7597656,114.695022 40.4746094,112.724319 46.4003906,115.866897 C52.3261719,119.009475 52.9746094,114.835647 55.8496094,114.835647 C58.7246094,114.835647 62.171875,116.58174 65.6816406,115.638381 C69.1914062,114.695022 72.0097656,109.255569 72.0097656,109.255569 L157.173828,113.228225 L157.001953,26.0856467 L1.515625,17.4235374 Z" id="Path-18" stroke="#B7DFF1" stroke-width="3" fill="#D8F2FD"></path>
            <g id="Group-9" transform="translate(88.485307, 68.500000) rotate(43.000000) translate(-88.485307, -68.500000) translate(67.485307, -5.000000)">
                <path d="M1.12379726e-07,108.368032 L20.3282905,121.55663 L20.3282905,146.468427 L21.3199144,146.468427 L21.3199144,121.55663 L41.6482048,108.368032 L41.6482048,17.0247782 C41.6482048,17.0247782 41.6772563,2.27373675e-13 20.8241025,2.27373675e-13 C-0.0290513697,2.27373675e-13 1.12379937e-07,17.0247782 1.12379937e-07,17.0247782 L1.12379726e-07,108.368032 Z" id="Path-19" stroke="#E7E7E7" stroke-width="3" fill="#FFFFFF"></path>
                <path d="M40.3302334,17.2375836 C40.3302334,17.2375836 41.5450166,1.60782453 20.6918627,1.60782453 C-0.161291109,1.60782453 1.43252441,17.2293715 1.43252441,17.2293715 L20.7030545,27.707123 L40.3302334,17.2375836 Z" id="Path-19-Copy" fill="#CCCCCC"></path>
                <path d="M20.5761964,119.430083 L20.5761964,28.573983" id="Line" stroke="#E7E7E7" stroke-linecap="square"></path>
                <path d="M23.0552562,47.1370268 L39.4170509,37.3676948" id="Line-Copy-7" stroke="#E7E7E7" stroke-linecap="square"></path>
                <path d="M2.23115383,47.1370268 L18.5929485,37.3676948" id="Line-Copy-6" stroke="#E7E7E7" stroke-linecap="square" transform="translate(10.412051, 42.252361) scale(-1, 1) translate(-10.412051, -42.252361) "></path>
                <path d="M23.0552562,66.6756907 L39.4170509,56.9063588" id="Line-Copy-9" stroke="#E7E7E7" stroke-linecap="square"></path>
                <path d="M2.23115383,66.6756907 L18.5929485,56.9063588" id="Line-Copy-8" stroke="#E7E7E7" stroke-linecap="square" transform="translate(10.412051, 61.791025) scale(-1, 1) translate(-10.412051, -61.791025) "></path>
                <path d="M23.0552562,86.2143547 L39.4170509,76.4450227" id="Line-Copy-11" stroke="#E7E7E7" stroke-linecap="square"></path>
                <path d="M2.23115383,86.2143547 L18.5929485,76.4450227" id="Line-Copy-10" stroke="#E7E7E7" stroke-linecap="square" transform="translate(10.412051, 81.329689) scale(-1, 1) translate(-10.412051, -81.329689) "></path>
                <path d="M23.0552562,105.753019 L39.4170509,95.9836867" id="Line-Copy-13" stroke="#E7E7E7" stroke-linecap="square"></path>
                <path d="M2.23115383,105.753019 L18.5929485,95.9836867" id="Line-Copy-12" stroke="#E7E7E7" stroke-linecap="square" transform="translate(10.412051, 100.868353) scale(-1, 1) translate(-10.412051, -100.868353) "></path>
            </g>
        </g>
    </g>
</svg>